PathFileType	4	(X/Y/Z)	Run_500 01
DataRate	CameraRate	NumFrames	NumMarkers	Units	OrigDataRate	OrigDataStartFrame	OrigNumFrames
120	120	7	42	mm	120	425	128
Frame#	Time	RASI			LPSI			RPSI			RTH3			LTH1			LTH2			LTH3			RTB1			RTB2			RTB3			LTB1			LTB2			LTB3			RCAL			RTOE			RMT5			LCAL			LTOE			LMT5			LACR			RACR			CLAV			C7			RUA1			RUA2			RUA3			RLEL			LUA1			LUA2			LUA3			LLEL			LMEL			RFAsuperior			RFAradius			RFAulna			LFAsuperior			LFAradius			LFAulna			LASI			RTH1			RMEL			RTH2		
		X1	Y1	Z1	X2	Y2	Z2	X3	Y3	Z3	X4	Y4	Z4	X5	Y5	Z5	X6	Y6	Z6	X7	Y7	Z7	X8	Y8	Z8	X9	Y9	Z9	X10	Y10	Z10	X11	Y11	Z11	X12	Y12	Z12	X13	Y13	Z13	X14	Y14	Z14	X15	Y15	Z15	X16	Y16	Z16	X17	Y17	Z17	X18	Y18	Z18	X19	Y19	Z19	X20	Y20	Z20	X21	Y21	Z21	X22	Y22	Z22	X23	Y23	Z23	X24	Y24	Z24	X25	Y25	Z25	X26	Y26	Z26	X27	Y27	Z27	X28	Y28	Z28	X29	Y29	Z29	X30	Y30	Z30	X31	Y31	Z31	X32	Y32	Z32	X33	Y33	Z33	X34	Y34	Z34	X35	Y35	Z35	X36	Y36	Z36	X37	Y37	Z37	X38	Y38	Z38	X39	Y39	Z39	X40	Y40	Z40	X41	Y41	Z41	X42	Y42	Z42	

425	  3.541667	1010.352257	990.398529	-203.565765	868.822359	1037.167938	-378.203454	847.646739	1031.340038	-282.201596	1113.998831	607.689780	-211.771727	926.990366	802.854771	-492.872296	919.182019	684.938465	-464.244359	804.174313	614.392334	-452.069457	1233.322654	417.797361	-292.467966	1215.343968	349.857734	-228.723528	1241.048433	295.560184	-300.344902	646.882157	475.952318	-383.974845	576.588626	539.521344	-444.417749	478.845948	509.484131	-380.851256	1181.807117	 96.579397	-308.340054	1374.949900	177.228130	-345.161807	1372.620557	140.751609	-255.461120	376.090099	622.573546	-366.812156	281.797024	436.620103	-360.842976	258.805425	469.358818	-441.881210	1048.147766	1455.562398	-483.860954	919.903104	1458.219796	-121.755945	1032.652582	1443.828431	-259.189347	924.494329	1501.216109	-334.480383	804.595401	1373.275958	-89.442068	756.374767	1395.149231	-144.573598	728.356199	1328.400818	-81.006065	662.671760	1288.741958	-77.409216	1013.069516	1336.284083	-564.926427	946.632111	1296.594908	-587.170243	1015.962676	1253.011399	-595.229732	975.069620	1179.765536	-629.401770	903.315469	1175.557006	-573.754548	703.452142	1164.974937	-67.929788	737.565778	1051.673685	-113.015297	682.793954	1037.506644	-71.098296	1069.490003	1152.456436	-541.286719	1101.577117	1168.068870	-419.236220	1138.872506	1122.685874	-456.697055	1032.285365	983.163906	-428.169871	979.905026	826.871487	-144.931093	655.710852	1274.324003	-159.461144	 -0.000000	 -0.000000	  0.000000	
426	  3.550000	1008.742027	985.613074	-202.048338	868.640079	1030.233170	-380.257416	847.026836	1025.625193	-284.246969	1107.585415	599.899567	-212.518136	930.489324	796.460681	-494.202744	927.074277	678.512376	-467.824288	815.824574	604.134086	-455.154999	1222.086333	405.256092	-291.595785	1198.487162	336.887141	-229.827363	1226.312967	283.071699	-301.388043	663.633649	471.681513	-387.474625	596.812272	539.706893	-447.348838	498.292532	517.409103	-382.236589	1160.036228	 91.954066	-313.254130	1356.660756	157.947034	-347.604981	1351.971411	120.729305	-258.334621	403.387030	637.012177	-365.091677	298.301322	456.487537	-366.108049	279.815551	492.568575	-446.934452	1047.756066	1449.900718	-484.555347	923.582107	1451.653844	-120.032393	1033.841454	1438.670289	-258.454625	925.992920	1496.959375	-333.591128	809.204818	1364.563916	-87.174056	759.424975	1386.563606	-140.683203	733.779974	1318.187166	-77.882194	668.991702	1277.379813	-73.616404	1009.673663	1331.152248	-564.805464	941.910257	1293.026254	-585.682989	1009.820727	1247.280903	-593.420269	967.281222	1175.464411	-628.578610	896.084782	1172.673699	-571.447540	713.184906	1154.780325	-65.954961	749.859735	1043.204846	-112.478032	696.043461	1026.955282	-70.016439	1062.815785	1142.904663	-543.554552	1098.632093	1154.493931	-422.089035	1132.784018	1108.201015	-461.276252	1032.844232	978.909967	-427.815277	977.096008	821.096965	-146.516972	661.014206	1263.520501	-155.691163	 -0.000000	 -0.000000	  0.000000	
427	  3.558333	1006.883445	979.478638	-201.281378	868.125167	1022.676975	-382.139709	846.341720	1019.285224	-286.212312	1099.726358	591.310282	-213.399714	933.686028	789.333554	-495.646327	935.624755	671.484974	-471.391092	828.497193	593.045664	-458.451451	1209.901936	392.266198	-291.695714	1180.591191	323.584856	-232.387035	1209.189911	269.888158	-303.667245	682.093764	466.566676	-390.991215	618.607765	538.701172	-450.540456	519.707732	522.643971	-384.671400	1133.954105	 90.923822	-318.485966	1334.691162	133.963266	-351.289979	1326.180685	 99.645596	-261.438838	431.949770	648.452199	-364.189623	318.853548	472.853750	-370.770355	304.383183	511.177460	-451.462281	1046.768096	1443.719636	-485.551429	927.482191	1444.222930	-118.049082	1035.044108	1432.478196	-258.405960	927.280480	1491.969266	-332.587339	814.257563	1354.797462	-84.354682	762.527583	1376.911583	-135.965011	739.801335	1306.853627	-74.162234	676.021347	1264.945141	-69.080543	1005.794215	1324.831624	-564.924434	936.774541	1288.641230	-584.591631	1003.011563	1240.474789	-591.472696	958.804118	1170.641482	-627.704760	888.605829	1169.281056	-569.259971	723.961428	1143.791696	-63.686592	763.353819	1034.224395	-112.005894	710.671045	1015.718286	-69.006210	1055.206097	1132.489272	-546.108908	1094.682653	1139.768103	-425.538164	1125.503294	1092.809686	-466.458018	1032.931036	973.891044	-427.872630	974.905488	815.418622	-147.719047	666.642844	1251.870360	-151.165297	  0.000000	  0.000000	 -0.000000	
428	  3.566667	1004.377768	972.357344	-201.561201	866.862868	1014.505457	-383.677809	845.041322	1012.567392	-287.897756	1090.854016	582.617950	-214.419015	937.104946	781.520484	-497.068742	944.864150	663.911263	-474.946384	842.387036	581.245839	-461.936340	1197.277898	380.526017	-293.390402	1163.171282	311.820703	-236.422124	1190.067645	257.864758	-307.550574	702.137722	460.607119	-394.534015	641.884967	536.348698	-453.934930	542.918368	525.390411	-387.842678	1103.974417	 92.818148	-324.010223	1308.543436	109.132024	-356.096847	1295.665054	 80.983750	-264.733558	461.482582	656.871360	-364.297236	342.784239	485.374104	-374.802428	331.562587	525.027091	-455.552296	1045.012250	1437.248588	-486.872633	931.557515	1436.093064	-115.753699	1036.468238	1425.343111	-259.291639	928.187138	1486.273462	-331.429148	819.820578	1344.029327	-80.985233	765.812507	1366.144410	-130.444630	746.494799	1294.391925	-69.855744	683.830000	1251.504829	-63.857149	1001.193113	1317.647974	-565.312479	931.158925	1283.498739	-583.931743	995.422082	1232.673373	-589.348513	949.656386	1165.406229	-626.824233	881.020240	1165.449051	-567.317581	735.722429	1132.097089	-61.160909	777.988649	1024.759983	-111.762615	726.624920	1003.925702	-68.196926	1046.633682	1121.388302	-548.994537	1089.572259	1123.981385	-429.518233	1117.015701	1076.695976	-472.261205	1032.463052	968.072636	-428.236344	972.831848	809.456427	-148.138902	672.731553	1239.457906	-145.946680	  0.000000	  0.000000	 -0.000000	
429	  3.575000	1000.934302	964.866246	-202.574769	864.506426	1005.963148	-384.890504	842.530764	1005.826958	-289.256932	1082.175533	574.881967	-215.433431	941.267770	773.351047	-498.289393	954.941476	656.031987	-478.357715	857.695646	569.131110	-465.611191	1184.360924	371.661268	-296.655661	1147.047191	303.522092	-241.026771	1169.271435	248.999350	-312.510297	723.847963	454.016997	-397.934530	666.520437	532.473131	-457.556091	567.882063	526.082608	-391.086796	1070.561916	 96.171732	-329.415903	1277.648470	 88.701170	-361.173931	1261.131961	 67.979814	-267.912003	491.794319	662.203470	-365.454069	369.284484	493.825272	-378.182090	360.545370	534.018169	-459.321833	1042.473827	1430.735777	-488.543903	935.739688	1427.458913	-113.113482	1038.185413	1417.759301	-260.914771	928.660118	1480.139284	-330.080656	826.030138	1332.252610	-77.235075	769.479408	1354.195541	-124.123984	753.874693	1280.791665	-65.073459	692.470125	1237.109816	-58.066557	995.686417	1310.199188	-565.888770	924.953348	1277.737740	-583.645637	987.034515	1224.213823	-587.070521	939.839084	1159.904812	-625.908060	873.205356	1161.324851	-565.516716	748.425853	1119.782782	-58.421246	793.680688	1014.967741	-111.845320	743.891242	991.766683	-67.610538	1037.046209	1109.797889	-552.238975	1083.246274	1107.293554	-434.006148	1107.323641	1060.044089	-478.711841	1031.288513	961.514566	-428.681549	970.120689	803.395192	-147.663488	679.377565	1226.262008	-140.092896	  0.000000	  0.000000	 -0.000000	
430	  3.583333	996.557918	957.726564	-203.580431	861.078056	997.699172	-385.972385	838.681824	999.524474	-290.458363	1074.729529	568.830345	-216.071160	946.632145	765.406353	-499.155793	966.191900	648.459614	-481.394661	874.587889	557.487505	-469.446580	1170.700778	366.187705	-300.701651	1131.605357	299.563690	-244.816628	1146.957123	244.180929	-317.281053	747.441906	447.142672	-401.025894	692.434170	527.077000	-461.439434	594.524534	525.024936	-393.934804	1034.386978	 99.607280	-333.993571	1242.162567	 76.154459	-365.403625	1223.577857	 61.682506	-270.533496	522.487287	664.503914	-367.618130	397.610314	498.081480	-380.965816	390.744419	537.995540	-462.848917	1039.337235	1424.452880	-490.499885	939.991011	1418.583706	-110.205281	1040.079853	1410.465549	-262.804789	928.858740	1474.107909	-328.533699	833.080782	1319.534074	-73.479498	773.786319	1341.139519	-117.029706	761.975612	1266.163171	-60.072716	702.051044	1221.850284	-51.905472	989.259315	1303.236226	-566.469610	918.055143	1271.696970	-583.487637	978.034347	1215.791629	-584.863179	929.371915	1154.386240	-624.869428	864.898654	1157.172994	-563.598216	762.133322	1106.972949	-55.532375	810.373266	1005.178669	-112.240296	762.518455	979.540316	-67.179483	1026.376436	1097.979249	-555.808429	1075.719076	1089.954569	-439.039309	1096.380789	1043.110644	-485.836128	1029.282433	954.452625	-428.932782	966.001893	797.934642	-146.632750	686.635514	1212.223232	-133.666626	 -0.000000	 -0.000000	  0.000000	
431	  3.591667	991.624169	951.578466	-203.872565	857.097280	990.670980	-387.135974	834.121802	994.210934	-291.732031	1068.328989	564.306075	-216.034100	953.445308	758.378292	-499.601196	978.978650	642.162841	-483.866557	893.182577	547.313890	-473.303958	1155.512697	362.964494	-304.227711	1114.918131	298.970893	-246.758720	1123.078123	242.404205	-320.593631	773.125604	440.354471	-403.700720	719.636448	520.454575	-465.525019	622.655317	522.241555	-396.386529	996.349801	102.325533	-337.125883	1203.335643	 71.246423	-368.046299	1184.199053	 60.431840	-272.252256	552.807007	664.042707	-370.707325	427.221168	498.098787	-383.258430	421.808938	536.766304	-466.127486	1035.933402	1418.683964	-492.537391	944.330261	1409.858967	-107.287750	1041.925671	1404.119236	-264.543030	929.083210	1468.813479	-326.858062	841.124309	1306.254415	-70.196081	778.996846	1327.384977	-109.357938	770.937709	1250.922193	-55.212507	712.782536	1205.967496	-45.633004	982.128044	1297.429903	-566.857876	910.458936	1266.002594	-582.985501	968.763100	1208.385621	-583.144993	918.341894	1149.279462	-623.651283	855.967321	1153.394624	-561.361828	777.043111	1093.920680	-52.619991	828.067744	995.852277	-112.881785	782.621957	967.673219	-66.810016	1014.594232	1086.369030	-559.601011	1066.976629	1072.372703	-444.645354	1084.028208	1026.297055	-493.610791	1026.504258	947.373857	-428.792060	959.950158	793.687847	-145.688388	694.575408	1197.354863	-126.765744	 -0.000000	 -0.000000	  0.000000	
